<svg width="32" height="32" viewBox="0 0 32 32" fill="none" xmlns="http://www.w3.org/2000/svg">
<path fill-rule="evenodd" clip-rule="evenodd" d="M30.2339 0H1.76609C0.790606 0 0 0.790603 0 1.76609V30.2338C0 31.2092 0.790606 32 1.76609 32H17.0923V19.6079H12.922V14.7784H17.0923V11.2169C17.0923 7.08377 19.6166 4.83318 23.3037 4.83318C25.0699 4.83318 26.5878 4.96459 27.0301 5.02334V9.34276L24.4729 9.34396C22.4678 9.34396 22.0794 10.2968 22.0794 11.695V14.7784H26.8618L26.2392 19.6079H22.0794V32H30.2339C31.2093 32 32 31.2092 32 30.2338V1.76609C32 0.790603 31.2093 0 30.2339 0Z" fill="#3B579D"/>
</svg>
