<svg width="32" height="32" viewBox="0 0 32 32" fill="none" xmlns="http://www.w3.org/2000/svg">
<path d="M29.8667 0H2.13333C0.955126 0 0 0.955126 0 2.13333V29.8667C0 31.0449 0.955126 32 2.13333 32H29.8667C31.0449 32 32 31.0449 32 29.8667V2.13333C32 0.955126 31.0449 0 29.8667 0Z" fill="#1DA1F2"/>
<path d="M12.2878 24.128C19.8318 24.128 23.9598 17.872 23.9598 12.456C23.9598 12.28 23.9598 12.104 23.9518 11.928C24.7518 11.352 25.4478 10.624 25.9998 9.80001C25.2638 10.128 24.4718 10.344 23.6398 10.448C24.4878 9.94401 25.1358 9.13601 25.4478 8.17601C24.6558 8.64801 23.7758 8.98401 22.8398 9.16801C22.0878 8.36801 21.0238 7.87201 19.8478 7.87201C17.5838 7.87201 15.7438 9.71201 15.7438 11.976C15.7438 12.296 15.7838 12.608 15.8478 12.912C12.4398 12.744 9.41581 11.104 7.39181 8.62401C7.03981 9.23201 6.83981 9.93601 6.83981 10.688C6.83981 12.112 7.56781 13.368 8.66381 14.104C7.99181 14.08 7.35981 13.896 6.80781 13.592C6.80781 13.608 6.80781 13.624 6.80781 13.648C6.80781 15.632 8.22381 17.296 10.0958 17.672C9.75181 17.768 9.39181 17.816 9.01581 17.816C8.75181 17.816 8.49581 17.792 8.24781 17.744C8.76781 19.376 10.2878 20.56 12.0798 20.592C10.6718 21.696 8.90381 22.352 6.98381 22.352C6.65581 22.352 6.32781 22.336 6.00781 22.296C7.81581 23.448 9.97581 24.128 12.2878 24.128Z" fill="white"/>
</svg>
