<svg width="32" height="32" viewBox="0 0 32 32" fill="none" xmlns="http://www.w3.org/2000/svg">
<path d="M28.2666 23.6692H23.7345L21.7334 18.861L19.7328 23.6692H15.2004L6.99183 3.94063H11.5745L17.4662 18.1021L19.442 13.353L15.5262 3.94063H20.1087L21.7333 7.84552L23.3578 3.94063H27.9404L24.0247 13.3533L26.0004 18.1021L31.892 3.94063V1.75271C31.8887 0.828516 31.1412 0.0810425 30.2178 0.0777092H1.75266C0.827038 0.0810425 0.0776367 0.831876 0.0776367 1.75852V5.71688V8.13018V30.2113V30.2179H0.0782878C0.0818294 31.1421 0.832454 31.8921 1.75891 31.8921H30.212C31.1379 31.8921 31.8887 31.1421 31.892 30.2179V14.9562L28.2666 23.6692Z" fill="#00A4BB"/>
<path d="M24.0246 13.3533L27.9403 3.94062H23.3577L21.7332 7.84552L20.1086 3.94062H15.5261L19.4419 13.353L17.466 18.1021L11.5744 3.94062H6.9917L15.1748 23.61L15.2002 23.6692H19.7327L21.7333 18.861L23.7344 23.6692H28.2665L31.8919 14.9562V4.44354V3.94062L26.0002 18.1021L24.0246 13.3533Z" fill="white"/>
</svg>
