<svg width="142" height="36" viewBox="0 0 142 36" fill="none" xmlns="http://www.w3.org/2000/svg">
<path fill-rule="evenodd" clip-rule="evenodd" d="M141.554 20.7466V20.1198C141.554 18.3699 140.744 16.2805 137.163 16.2805C134.261 16.2805 132.353 17.508 132.353 20.1459C132.353 22.392 133.242 23.4628 135.359 24.1941L137.659 25.0038C138.653 25.3433 139.202 26.0224 139.202 27.0671C139.202 28.3469 138.443 29.1304 136.901 29.1304C135.281 29.1304 134.706 28.2424 134.706 26.6231V26.1791H132.196V26.7014C132.196 29.4177 133.268 31.0631 136.824 31.0631C139.672 31.0631 141.868 29.7833 141.868 26.7798C141.868 24.5598 140.901 23.4367 138.809 22.7316L137.006 22.1047C135.516 21.5824 135.019 21.1384 135.019 20.0414C135.019 18.7355 135.908 18.2132 137.032 18.2132C138.496 18.2132 138.888 19.2579 138.888 20.381V20.7466H141.554ZM126.655 30.6974H129.322V16.6461H126.499V26.4664C126.499 28.0334 125.401 28.817 124.198 28.817C122.996 28.817 122.29 28.2946 122.29 26.7276V16.6461H119.467V26.4664C119.467 30.0967 120.879 31.0631 122.97 31.0631C124.538 31.0631 125.871 30.3057 126.577 29.052H126.655V30.6974ZM113.534 30.6974H116.357V12.0494H113.534V30.6974ZM102.582 23.5151C102.582 20.5115 103.026 18.5266 104.96 18.5266C106.921 18.5266 107.339 20.5377 107.339 23.724C107.339 27.6156 106.607 28.817 104.987 28.817C103 28.817 102.582 26.8843 102.582 23.5151ZM99.9156 35.2942H102.739V29.052H102.791C103.314 30.3057 104.464 31.0631 105.98 31.0631C107.914 31.0631 110.319 29.7572 110.319 23.8546C110.319 19.0228 109.012 16.2805 105.797 16.2805C104.255 16.2805 103.209 17.1163 102.634 18.3699H102.582V16.6461H99.9156V35.2942ZM86.8459 16.6461L90.8452 31.0109L90.4793 32.16C90.1656 33.048 89.5383 33.257 88.5711 33.257C88.2574 33.257 87.9699 33.2047 87.6562 33.1525V35.3986C88.0222 35.4509 88.4143 35.5031 88.7802 35.5031C91.6817 35.5553 92.5966 35.0591 93.6944 31.2198L97.563 16.6461H94.6093L92.3613 27.1977H92.309L89.8781 16.6461H86.8459ZM81.8498 23.8285C81.8498 26.832 81.4054 28.817 79.4711 28.817C77.5107 28.817 77.0924 26.8059 77.0924 23.6196C77.0924 19.8325 77.6675 18.5266 79.2881 18.5266C81.4577 18.5266 81.8498 20.4593 81.8498 23.8285ZM81.8498 30.6974H84.516V12.0494H81.6929V18.2915H81.6407C81.1179 17.0379 79.9677 16.2805 78.4517 16.2805C76.3082 16.2805 74.1125 17.2468 74.1125 23.489C74.1125 28.3207 75.4195 31.0631 78.7131 31.0631C80.7258 31.0631 81.4315 29.8878 81.7975 28.9737H81.8498V30.6974ZM68.8854 30.6974H71.5516V16.6461H68.7286V26.4664C68.7286 28.0334 67.6307 28.817 66.4283 28.817C65.2259 28.817 64.5201 28.2946 64.5201 26.7276V16.6461H61.6971V26.4664C61.6971 30.0967 63.1086 31.0631 65.1998 31.0631C66.7681 31.0631 68.1012 30.3057 68.807 29.052H68.8854V30.6974ZM51.738 18.7355H53.6723V27.4589C53.6723 30.3318 54.6133 30.8541 56.5215 30.8541C57.4102 30.8541 58.1944 30.7758 58.7956 30.6191V28.5297C58.5342 28.5819 58.1944 28.608 57.7762 28.608C56.809 28.608 56.4954 28.2163 56.4954 27.1193V18.7355H58.7956V16.6461H56.4954V12.6501H53.6723V16.6461H51.738V18.7355ZM38.0149 24.9254V25.3694C38.0149 27.9812 39.0605 31.0631 43.6871 31.0631C47.4512 31.0631 49.856 29.4177 49.856 25.4478C49.856 22.8883 48.7059 21.4518 46.0658 20.5115L44.0531 19.7803C42.0665 19.0228 41.2562 18.2132 41.2562 16.62C41.2562 14.6351 42.4847 13.9299 43.7655 13.9299C45.6214 13.9299 46.3795 14.9224 46.3795 16.62V17.0118H49.3593V16.5939C49.3593 14.6612 48.8627 11.6838 44.0792 11.6838C40.5765 11.6838 38.2763 13.5642 38.2763 16.9595C38.2763 19.6235 39.4526 21.0339 42.171 22.0786L44.2099 22.7838C45.8828 23.28 46.8761 24.1419 46.8761 26.1007C46.8761 27.485 45.9351 28.817 44.0531 28.817C41.9881 28.817 40.9948 27.6678 40.9948 25.3956V24.9254H38.0149Z" fill="#1A1A1A"/>
<path fill-rule="evenodd" clip-rule="evenodd" d="M0.0144043 33.067L30.0598 31.5176L0.0144043 30.5703V33.067Z" fill="url(#paint0_linear)"/>
<path fill-rule="evenodd" clip-rule="evenodd" d="M11.1163 0.701233L0.000732422 11.7998L2.28616 14.0798L13.401 2.98194L11.1163 0.701233Z" fill="#E74226"/>
<path d="M12.332 6.30938L3.41309 15.2158L5.69685 17.499L14.6157 8.59255L12.332 6.30938Z" fill="#F3B418"/>
<path fill-rule="evenodd" clip-rule="evenodd" d="M16.9219 13.1118L9.11756 20.9033L6.83496 18.6226L14.6372 10.8325L16.9219 13.1118Z" fill="#8DC32E"/>
<path fill-rule="evenodd" clip-rule="evenodd" d="M23.5728 13.2918L12.5356 24.3155L10.2495 22.0327L21.2895 11.011L23.5728 13.2918Z" fill="#35B498"/>
<path fill-rule="evenodd" clip-rule="evenodd" d="M13.6638 25.4443L15.9507 27.7264L30.0419 13.6574L27.7571 11.3774L13.6638 25.4443Z" fill="#3071B7"/>
<path fill-rule="evenodd" clip-rule="evenodd" d="M17.0845 28.8551L30.0595 30.7101L28.2007 17.7565L17.0845 28.8551Z" fill="#E2CAA6"/>
<path fill-rule="evenodd" clip-rule="evenodd" d="M22.3052 23.6414L30.0593 30.7101L28.2006 17.7565L22.3052 23.6414Z" fill="#FAEAD5"/>
<path fill-rule="evenodd" clip-rule="evenodd" d="M19.8333 26.1099L30.0594 30.7102L25.2879 20.6633L19.8333 26.1099Z" fill="#EFDBB3"/>
<path fill-rule="evenodd" clip-rule="evenodd" d="M25.9619 30.1242L30.0587 30.7101L29.4723 26.623L25.9619 30.1242Z" fill="url(#paint1_linear)"/>
<defs>
<linearGradient id="paint0_linear" x1="0.0145456" y1="31.8188" x2="30.0601" y2="31.8188" gradientUnits="userSpaceOnUse">
<stop stop-color="#A7A2A1" stop-opacity="0"/>
<stop offset="1" stop-color="#A7A2A1"/>
</linearGradient>
<linearGradient id="paint1_linear" x1="27.0883" y1="31.2925" x2="30.6975" y2="27.7356" gradientUnits="userSpaceOnUse">
<stop stop-color="#323333"/>
<stop offset="1" stop-color="#5F5F5F"/>
</linearGradient>
</defs>
</svg>
