<svg width="230" height="56" viewBox="0 0 230 56" fill="none" xmlns="http://www.w3.org/2000/svg">
<path fill-rule="evenodd" clip-rule="evenodd" d="M228.994 32.2522V31.2437C228.994 28.4283 227.686 25.0665 221.905 25.0665C217.222 25.0665 214.142 27.0415 214.142 31.2857C214.142 34.8996 215.577 36.6225 218.994 37.7991L222.707 39.1018C224.31 39.648 225.196 40.7406 225.196 42.4215C225.196 44.4805 223.973 45.7412 221.483 45.7412C218.867 45.7412 217.939 44.3124 217.939 41.7071V40.9927H213.888V41.8332C213.888 46.2034 215.618 48.8508 221.358 48.8508C225.956 48.8508 229.5 46.7917 229.5 41.9592C229.5 38.3874 227.939 36.5805 224.563 35.4459L221.652 34.4374C219.247 33.5969 218.445 32.8825 218.445 31.1176C218.445 29.0166 219.88 28.1761 221.694 28.1761C224.057 28.1761 224.69 29.857 224.69 31.6639V32.2522H228.994ZM204.945 48.2625H209.248V25.6548H204.691V41.455C204.691 43.9763 202.919 45.2369 200.978 45.2369C199.037 45.2369 197.898 44.3965 197.898 41.8752V25.6548H193.341V41.455C193.341 47.296 195.62 48.8508 198.995 48.8508C201.527 48.8508 203.679 47.6321 204.818 45.6151H204.945V48.2625ZM183.764 48.2625H188.321V18.259H183.764V48.2625ZM166.085 36.7065C166.085 31.874 166.803 28.6804 169.925 28.6804C173.089 28.6804 173.765 31.9161 173.765 37.0427C173.765 43.3039 172.583 45.2369 169.967 45.2369C166.76 45.2369 166.085 42.1273 166.085 36.7065ZM161.782 55.6583H166.338V45.6151H166.423C167.267 47.6321 169.123 48.8508 171.57 48.8508C174.693 48.8508 178.575 46.7497 178.575 37.2528C178.575 29.4788 176.465 25.0665 171.275 25.0665C168.786 25.0665 167.098 26.4112 166.17 28.4283H166.085V25.6548H161.782V55.6583ZM140.685 25.6548L147.14 48.7667L146.55 50.6157C146.043 52.0444 145.031 52.3806 143.469 52.3806C142.963 52.3806 142.499 52.2965 141.993 52.2125V55.8264C142.583 55.9104 143.216 55.9945 143.807 55.9945C148.491 56.0785 149.967 55.2801 151.739 49.1029L157.984 25.6548H153.216L149.588 42.6316H149.503L145.579 25.6548H140.685ZM132.62 37.2108C132.62 42.0433 131.903 45.2369 128.78 45.2369C125.616 45.2369 124.941 42.0012 124.941 36.8746C124.941 30.7815 125.869 28.6804 128.485 28.6804C131.987 28.6804 132.62 31.79 132.62 37.2108ZM132.62 48.2625H136.924V18.259H132.367V28.3022H132.282C131.439 26.2852 129.582 25.0665 127.135 25.0665C123.675 25.0665 120.131 26.6213 120.131 36.6645C120.131 44.4385 122.24 48.8508 127.557 48.8508C130.806 48.8508 131.945 46.9598 132.536 45.489H132.62V48.2625ZM111.693 48.2625H115.997V25.6548H111.44V41.455C111.44 43.9763 109.668 45.2369 107.727 45.2369C105.786 45.2369 104.647 44.3965 104.647 41.8752V25.6548H100.09V41.455C100.09 47.296 102.368 48.8508 105.744 48.8508C108.275 48.8508 110.427 47.6321 111.566 45.6151H111.693V48.2625ZM84.014 29.0166H87.1363V43.0518C87.1363 47.6742 88.6553 48.5146 91.7354 48.5146C93.17 48.5146 94.4358 48.3885 95.4063 48.1364V44.7747C94.9843 44.8587 94.4358 44.9007 93.7607 44.9007C92.1996 44.9007 91.6932 44.2704 91.6932 42.5055V29.0166H95.4063V25.6548H91.6932V19.2255H87.1363V25.6548H84.014V29.0166ZM61.8623 38.9757V39.6901C61.8623 43.8922 63.5501 48.8508 71.0183 48.8508C77.0942 48.8508 80.976 46.2034 80.976 39.8161C80.976 35.698 79.1195 33.3868 74.858 31.874L71.609 30.6974C68.4023 29.4788 67.0943 28.1761 67.0943 25.6128C67.0943 22.4192 69.0774 21.2846 71.1449 21.2846C74.1407 21.2846 75.3643 22.8814 75.3643 25.6128V26.2431H80.1744V25.5708C80.1744 22.4612 79.3727 17.6707 71.6512 17.6707C65.9973 17.6707 62.2842 20.6963 62.2842 26.1591C62.2842 30.4453 64.183 32.7145 68.5711 34.3953L71.8622 35.5299C74.5626 36.3283 76.166 37.715 76.166 40.8667C76.166 43.0938 74.647 45.2369 71.609 45.2369C68.2757 45.2369 66.6724 43.388 66.6724 39.7321V38.9757H61.8623Z" fill="#545252"/>
<path fill-rule="evenodd" clip-rule="evenodd" d="M0.520508 52.075L49.0193 49.5821L0.520508 48.058V52.075Z" fill="url(#paint0_linear)"/>
<path fill-rule="evenodd" clip-rule="evenodd" d="M18.4426 0L0.5 17.8569L4.1891 21.5253L22.1305 3.66951L18.4426 0Z" fill="#E74226"/>
<path d="M20.405 9.02357L6.0083 23.3535L9.69471 27.027L24.0914 12.697L20.405 9.02357Z" fill="#F3B418"/>
<path fill-rule="evenodd" clip-rule="evenodd" d="M27.8139 19.9683L15.2163 32.5043L11.5317 28.8348L24.126 16.301L27.8139 19.9683Z" fill="#8DC32E"/>
<path fill-rule="evenodd" clip-rule="evenodd" d="M38.5492 20.2578L20.7332 37.9944L17.043 34.3215L34.8635 16.5883L38.5492 20.2578Z" fill="#35B498"/>
<path fill-rule="evenodd" clip-rule="evenodd" d="M22.5547 39.8104L26.2461 43.4822L48.9919 20.8462L45.304 17.1778L22.5547 39.8104Z" fill="#3071B7"/>
<path fill-rule="evenodd" clip-rule="evenodd" d="M28.0767 45.2983L49.0207 48.283L46.0204 27.4413L28.0767 45.2983Z" fill="#E2CAA6"/>
<path fill-rule="evenodd" clip-rule="evenodd" d="M36.5039 36.9099L49.0206 48.283L46.0203 27.4413L36.5039 36.9099Z" fill="#FAEAD5"/>
<path fill-rule="evenodd" clip-rule="evenodd" d="M32.5137 40.8814L49.0205 48.2829L41.3185 32.1182L32.5137 40.8814Z" fill="#EFDBB3"/>
<path fill-rule="evenodd" clip-rule="evenodd" d="M42.4062 47.3403L49.0193 48.2829L48.0728 41.7071L42.4062 47.3403Z" fill="url(#paint1_linear)"/>
<defs>
<linearGradient id="paint0_linear" x1="0.520736" y1="50.0667" x2="49.0199" y2="50.0667" gradientUnits="userSpaceOnUse">
<stop stop-color="#A7A2A1" stop-opacity="0"/>
<stop offset="1" stop-color="#A7A2A1"/>
</linearGradient>
<linearGradient id="paint1_linear" x1="44.2245" y1="49.22" x2="50.0317" y2="43.4782" gradientUnits="userSpaceOnUse">
<stop stop-color="#323333"/>
<stop offset="1" stop-color="#5F5F5F"/>
</linearGradient>
</defs>
</svg>
