<svg width="392" height="56" viewBox="0 0 392 56" fill="none" xmlns="http://www.w3.org/2000/svg">
<g clip-path="url(#clip0)">
<path d="M0.519531 52.4259L49.3675 49.9094L0.519531 48.3819V52.4259Z" fill="url(#paint0_linear)"/>
<path d="M18.5741 0L0.5 17.978L4.2168 21.6695L22.2909 3.69156L18.5741 0Z" fill="#E74226"/>
<path d="M24.2719 12.7687L9.76755 27.1922L6.06055 23.5006L20.5551 9.07712L24.2719 12.7687Z" fill="#F3B418"/>
<path d="M28.0084 20.1028L15.3281 32.7246L11.6113 29.0232L24.3014 16.4113L28.0084 20.1028Z" fill="#8DC32E"/>
<path d="M38.825 20.3966L20.8784 38.2473L17.1616 34.5459L35.1082 16.6953L38.825 20.3966Z" fill="#35B498"/>
<path d="M22.7124 40.0783L26.4292 43.7699L49.338 20.9841L45.6311 17.2925L22.7124 40.0783Z" fill="#3071B7"/>
<path d="M28.2729 45.6009L49.3675 48.607L46.347 27.623L28.2729 45.6009Z" fill="#E2CAA6"/>
<path d="M36.7656 37.1603L49.3675 48.607L46.347 27.623L36.7656 37.1603Z" fill="#FAEAD5"/>
<path d="M32.7451 41.1555L49.3678 48.6071L41.6105 32.3329L32.7451 41.1555Z" fill="#EFDBB3"/>
<path d="M42.709 47.6573L49.3678 48.6071L48.4166 41.9878L42.709 47.6573Z" fill="url(#paint1_linear)"/>
<path d="M228.843 32.3134V31.3342C228.843 28.5239 227.529 25.1653 221.762 25.1653C217.085 25.1653 214.005 27.1236 214.005 31.3733C214.005 34.9865 215.437 36.7001 218.85 37.8752L222.557 39.1677C223.29 39.3427 223.941 39.7642 224.4 40.3615C224.859 40.9588 225.098 41.6955 225.077 42.448C225.077 44.5043 223.851 45.7675 221.37 45.7675C218.889 45.7675 217.83 44.3378 217.83 41.7332V41.0282H213.78V41.8605C213.78 46.2277 215.516 48.8715 221.243 48.8715C225.832 48.8715 229.373 46.8152 229.373 42.0171C229.373 38.4529 227.813 36.6512 224.469 35.5153L221.527 34.5361C219.124 33.694 218.33 32.9792 218.33 31.2167C218.33 29.1212 219.762 28.2791 221.566 28.2791C223.93 28.2791 224.508 29.9535 224.508 31.7552V32.3134H228.843ZM204.826 48.284H209.121V25.7626H204.571V41.4884C204.603 41.986 204.53 42.4847 204.356 42.9521C204.182 43.4195 203.911 43.845 203.562 44.2008C203.212 44.5565 202.791 44.8346 202.326 45.0169C201.861 45.1991 201.363 45.2814 200.864 45.2583C198.903 45.2583 197.785 44.426 197.785 41.9094V25.7136H193.234V41.4884C193.234 47.3635 195.509 48.8715 198.883 48.8715C200.054 48.9059 201.213 48.6239 202.236 48.0551C203.26 47.4863 204.111 46.6519 204.699 45.6402H204.826V48.284ZM183.673 48.284H188.223V18.3403H183.673V48.284ZM166.02 36.7491C166.02 31.9217 166.736 28.7393 169.855 28.7393C172.973 28.7393 173.689 31.9706 173.689 37.082C173.689 43.3293 172.503 45.2583 169.894 45.2583C166.687 45.2583 166.02 42.1542 166.02 36.7491ZM161.715 55.6671H166.236V45.6402H166.314C166.734 46.6409 167.453 47.488 168.373 48.0662C169.292 48.6444 170.368 48.9256 171.453 48.8715C174.572 48.8715 178.455 46.7662 178.455 37.2877C178.455 29.5325 176.347 25.1261 171.159 25.1261C170.068 25.1027 168.996 25.4116 168.085 26.0115C167.174 26.6115 166.467 27.4741 166.059 28.4847H165.981V25.7136H161.676V55.6671H161.715ZM140.65 25.7136L147.103 48.7834L146.505 50.634C146.004 52.0539 144.994 52.3966 143.435 52.3966C142.937 52.3814 142.442 52.3224 141.954 52.2203V55.814C142.555 55.9082 143.161 55.9638 143.768 55.9804C148.446 56.0588 149.917 55.2656 151.692 49.1261L157.93 25.7234H153.163L149.564 42.6634H149.476L145.553 25.7136H140.65ZM132.598 37.2093C132.598 42.0367 131.883 45.2191 128.764 45.2191C125.645 45.2191 124.929 41.9976 124.929 36.8764C124.929 30.7956 125.91 28.7001 128.47 28.7001C131.971 28.7001 132.598 31.8042 132.598 37.2093ZM132.598 48.2448H136.894V18.3403H132.343V28.3966H132.265C131.845 27.3959 131.126 26.5487 130.207 25.9705C129.287 25.3923 128.212 25.1111 127.126 25.1653C123.664 25.1653 120.124 26.7222 120.124 36.7491C120.124 44.5043 122.233 48.9107 127.538 48.9107C128.624 48.9904 129.706 48.7023 130.608 48.0929C131.51 47.4836 132.18 46.5884 132.51 45.552H132.598V48.3231V48.2448ZM111.7 48.2448H115.995V25.7234H111.445V41.4884C111.479 41.9863 111.407 42.4858 111.233 42.9539C111.06 43.4219 110.789 43.8481 110.439 44.2042C110.089 44.5603 109.667 44.8384 109.202 45.0201C108.736 45.2017 108.237 45.2829 107.738 45.2583C105.777 45.2583 104.668 44.426 104.668 41.9094V25.7136H100.118V41.4884C100.118 47.3635 102.393 48.8715 105.757 48.8715C106.928 48.9059 108.087 48.6239 109.11 48.0551C110.134 47.4863 110.985 46.6519 111.573 45.6402H111.7V48.284V48.2448ZM84.0642 29.0722H87.1828V43.0845C87.1828 47.6965 88.6931 48.5288 91.7724 48.5288C93.0057 48.5556 94.2375 48.4306 95.4402 48.1567V44.798C94.8966 44.8947 94.3447 44.9373 93.7926 44.9253C92.2334 44.9253 91.7332 44.2987 91.7332 42.5361V29.0722H95.4402V25.7136H91.7038V19.2999H87.173V25.7136H84.0642V29.0722ZM61.9399 39.011V39.7258C61.9399 43.9168 63.6267 48.8715 71.0799 48.8715C77.1504 48.8715 81.0241 46.2277 81.0241 39.8531C81.0241 35.7405 79.1706 33.4296 74.9144 31.9217L71.6782 30.7466C68.4713 29.5324 67.167 28.2301 67.167 25.6744C67.167 22.4823 69.1284 21.3562 71.2074 21.3562C74.1985 21.3562 75.4244 22.9523 75.4244 25.6744V26.3011H80.2298V25.6353C80.2298 22.5312 79.4256 17.743 71.7174 17.743C66.0686 17.743 62.3616 20.7687 62.3616 26.2228C62.3616 30.5019 64.2544 32.7638 68.638 34.4382L71.9233 35.5741C74.6202 36.3672 76.2285 37.7577 76.2285 40.9009C76.245 41.4935 76.1371 42.0831 75.9118 42.6317C75.6864 43.1802 75.3486 43.6756 74.92 44.086C74.4915 44.4964 73.9816 44.8127 73.4233 45.0146C72.865 45.2165 72.2705 45.2995 71.6782 45.2583C68.3438 45.2583 66.7747 43.4174 66.7747 39.765V39.011H61.9399Z" fill="#545252"/>
<path d="M244.544 29.9633V28.3966H247.937V27.4174C247.937 23.9021 248.839 20.7686 253.262 20.7686C254.283 20.791 255.297 20.9357 256.283 21.1995L255.979 22.8152C255.155 22.5807 254.305 22.4459 253.449 22.4137C250.958 22.4137 249.81 23.4418 249.81 27.4467V28.4259H254.576V29.9633H249.81V46.1004H247.937V29.9633H244.544Z" fill="#717171"/>
<path d="M272.984 37.2093C272.984 42.1053 271.023 46.6977 264.854 46.6977C258.686 46.6977 256.695 42.0661 256.695 37.1799C256.695 32.2938 258.656 27.7895 264.854 27.7895C271.052 27.7895 272.984 32.3917 272.984 37.1799V37.2093ZM264.884 45.0429C269.061 45.0429 271.023 42.1053 271.023 37.1408C271.023 32.1763 269.061 29.3954 264.854 29.3954C260.647 29.3954 258.656 32.2546 258.656 37.1408C258.656 42.0269 260.618 45.0429 264.854 45.0429H264.884Z" fill="#717171"/>
<path d="M285.38 28.0343L285.282 29.7772C284.046 29.7176 282.82 30.0181 281.753 30.6423C280.685 31.2665 279.823 32.1873 279.27 33.2925V46.1004H277.377V33.224C277.424 31.6047 277.266 29.986 276.907 28.4063L278.623 28.1224C278.979 29.1779 279.177 30.2798 279.211 31.3929C279.848 30.3366 280.755 29.4687 281.84 28.8784C282.924 28.2881 284.146 27.9967 285.38 28.0343Z" fill="#717171"/>
<path d="M310.544 24.9498C308.893 24.0665 307.062 23.5708 305.19 23.5006C302.915 23.5006 300.11 24.4798 300.11 27.858C300.11 30.3745 302.169 31.3341 305.131 32.705C308.867 34.448 311.515 36.0343 311.515 39.8629C311.515 44.5532 308.397 46.5116 304.601 46.5116C302.037 46.4745 299.505 45.9355 297.148 44.9253L297.649 43.1824C299.811 44.149 302.144 44.6782 304.513 44.7393C307.004 44.7393 309.534 43.6524 309.534 39.951C309.534 37.3072 307.445 35.907 304.052 34.35C300.659 32.7931 298.168 31.5202 298.168 27.9168C298.168 23.5593 301.561 21.7576 305.033 21.7576C307.167 21.7803 309.268 22.2929 311.172 23.2558L310.544 24.9498Z" fill="#717171"/>
<path d="M314.879 37.4247C314.879 31.9804 317.085 27.7209 323.224 27.7209C324.628 27.7387 326.022 27.9597 327.363 28.377L326.99 30.0514C325.781 29.6228 324.508 29.401 323.224 29.3954C318.321 29.3954 316.811 33.1359 316.811 37.4541C316.811 41.4394 318.4 44.9156 323.352 44.9156C324.666 44.94 325.972 44.7209 327.206 44.2693L327.52 45.9731C326.143 46.4206 324.702 46.6421 323.254 46.6292C316.87 46.6292 314.879 42.213 314.879 37.4541V37.4247Z" fill="#717171"/>
<path d="M339.916 27.9951C343.78 27.9951 345.496 30.306 345.496 34.5263V46.1004H343.593V34.9376C343.593 32.2938 342.936 29.6206 339.455 29.6206C338.312 29.6554 337.189 29.9246 336.154 30.4114C335.12 30.8983 334.197 31.5923 333.443 32.4504V46.1004H331.482V21.1604L333.443 20.847V30.8642C335.141 29.098 337.465 28.0677 339.916 27.9951Z" fill="#717171"/>
<path d="M365.894 37.2093C365.894 42.1053 363.933 46.6977 357.764 46.6977C351.596 46.6977 349.625 42.0269 349.625 37.1408C349.625 32.2546 351.586 27.7503 357.784 27.7503C363.982 27.7503 365.914 32.3525 365.914 37.1408L365.894 37.2093ZM357.794 45.0428C361.971 45.0428 363.933 42.1053 363.933 37.1408C363.933 32.1763 361.971 29.3953 357.764 29.3953C353.557 29.3953 351.586 32.2252 351.586 37.1114C351.586 41.9975 353.547 45.0428 357.764 45.0428H357.794Z" fill="#717171"/>
<path d="M385.302 37.2093C385.302 42.1053 383.341 46.6977 377.172 46.6977C371.004 46.6977 369.013 42.0661 369.013 37.1799C369.013 32.2938 370.974 27.7895 377.172 27.7895C383.37 27.7895 385.302 32.3917 385.302 37.1799V37.2093ZM377.201 45.0429C381.379 45.0429 383.341 42.1053 383.341 37.1408C383.341 32.1763 381.379 29.3954 377.172 29.3954C372.965 29.3954 370.974 32.2546 370.974 37.1408C370.974 42.0269 372.935 45.0429 377.172 45.0429H377.201Z" fill="#717171"/>
<path d="M391.499 46.1004H389.539V21.1604L391.499 20.847V46.1004Z" fill="#717171"/>
</g>
<defs>
<linearGradient id="paint0_linear" x1="1.20405" y1="49.6233" x2="55.1428" y2="49.6233" gradientUnits="userSpaceOnUse">
<stop stop-color="#A7A2A1" stop-opacity="0"/>
<stop offset="1" stop-color="#A7A2A1"/>
</linearGradient>
<linearGradient id="paint1_linear" x1="43.451" y1="47.9129" x2="49.2986" y2="42.0281" gradientUnits="userSpaceOnUse">
<stop stop-color="#323333"/>
<stop offset="1" stop-color="#5F5F5F"/>
</linearGradient>
<clipPath id="clip0">
<rect width="391" height="56" fill="white" transform="translate(0.5)"/>
</clipPath>
</defs>
</svg>
