<svg width="440" height="56" viewBox="0 0 440 56" fill="none" xmlns="http://www.w3.org/2000/svg">
<g clip-path="url(#clip0)">
<path d="M24.5195 52.4259L73.3675 49.9094L24.5195 48.3819V52.4259Z" fill="url(#paint0_linear)"/>
<path d="M42.5741 0L24.5 17.978L28.2168 21.6695L46.2909 3.69156L42.5741 0Z" fill="#E74226"/>
<path d="M48.2719 12.7687L33.7675 27.1922L30.0605 23.5006L44.5551 9.07712L48.2719 12.7687Z" fill="#F3B418"/>
<path d="M52.0084 20.1028L39.3281 32.7246L35.6113 29.0232L48.3014 16.4113L52.0084 20.1028Z" fill="#8DC32E"/>
<path d="M62.825 20.3966L44.8784 38.2473L41.1616 34.5459L59.1082 16.6953L62.825 20.3966Z" fill="#35B498"/>
<path d="M46.7124 40.0783L50.4292 43.7699L73.338 20.9841L69.6311 17.2925L46.7124 40.0783Z" fill="#3071B7"/>
<path d="M52.2729 45.6009L73.3675 48.607L70.347 27.623L52.2729 45.6009Z" fill="#E2CAA6"/>
<path d="M60.7656 37.1603L73.3675 48.607L70.347 27.623L60.7656 37.1603Z" fill="#FAEAD5"/>
<path d="M56.7451 41.1555L73.3678 48.6071L65.6105 32.3329L56.7451 41.1555Z" fill="#EFDBB3"/>
<path d="M66.709 47.6573L73.3678 48.6071L72.4166 41.9878L66.709 47.6573Z" fill="url(#paint1_linear)"/>
<path d="M252.843 32.3134V31.3342C252.843 28.5239 251.529 25.1653 245.762 25.1653C241.085 25.1653 238.005 27.1236 238.005 31.3733C238.005 34.9865 239.437 36.7001 242.85 37.8752L246.557 39.1677C247.29 39.3427 247.941 39.7642 248.4 40.3615C248.859 40.9588 249.098 41.6955 249.077 42.448C249.077 44.5043 247.851 45.7675 245.37 45.7675C242.889 45.7675 241.83 44.3378 241.83 41.7332V41.0282H237.78V41.8605C237.78 46.2277 239.516 48.8715 245.243 48.8715C249.832 48.8715 253.373 46.8152 253.373 42.0171C253.373 38.4529 251.813 36.6512 248.469 35.5153L245.527 34.5361C243.124 33.694 242.33 32.9792 242.33 31.2167C242.33 29.1212 243.762 28.2791 245.566 28.2791C247.93 28.2791 248.508 29.9535 248.508 31.7552V32.3134H252.843ZM228.826 48.284H233.121V25.7626H228.571V41.4884C228.603 41.986 228.53 42.4847 228.356 42.9521C228.182 43.4195 227.911 43.845 227.562 44.2008C227.212 44.5565 226.791 44.8346 226.326 45.0169C225.861 45.1991 225.363 45.2814 224.864 45.2583C222.903 45.2583 221.785 44.426 221.785 41.9094V25.7136H217.234V41.4884C217.234 47.3635 219.509 48.8715 222.883 48.8715C224.054 48.9059 225.213 48.6239 226.236 48.0551C227.26 47.4863 228.111 46.6519 228.699 45.6402H228.826V48.284ZM207.673 48.284H212.223V18.3403H207.673V48.284ZM190.02 36.7491C190.02 31.9217 190.736 28.7393 193.855 28.7393C196.973 28.7393 197.689 31.9706 197.689 37.082C197.689 43.3293 196.503 45.2583 193.894 45.2583C190.687 45.2583 190.02 42.1542 190.02 36.7491ZM185.715 55.6671H190.236V45.6402H190.314C190.734 46.6409 191.453 47.488 192.373 48.0662C193.292 48.6444 194.368 48.9256 195.453 48.8715C198.572 48.8715 202.455 46.7662 202.455 37.2877C202.455 29.5325 200.347 25.1261 195.159 25.1261C194.068 25.1027 192.996 25.4116 192.085 26.0115C191.174 26.6115 190.467 27.4741 190.059 28.4847H189.981V25.7136H185.676V55.6671H185.715ZM164.65 25.7136L171.103 48.7834L170.505 50.634C170.004 52.0539 168.994 52.3966 167.435 52.3966C166.937 52.3814 166.442 52.3224 165.954 52.2203V55.814C166.555 55.9082 167.161 55.9638 167.768 55.9804C172.446 56.0588 173.917 55.2656 175.692 49.1261L181.93 25.7234H177.163L173.564 42.6634H173.476L169.553 25.7136H164.65ZM156.598 37.2093C156.598 42.0367 155.883 45.2191 152.764 45.2191C149.645 45.2191 148.929 41.9976 148.929 36.8764C148.929 30.7956 149.91 28.7001 152.47 28.7001C155.971 28.7001 156.598 31.8042 156.598 37.2093ZM156.598 48.2448H160.894V18.3403H156.343V28.3966H156.265C155.845 27.3959 155.126 26.5487 154.207 25.9705C153.287 25.3923 152.212 25.1111 151.126 25.1653C147.664 25.1653 144.124 26.7222 144.124 36.7491C144.124 44.5043 146.233 48.9107 151.538 48.9107C152.624 48.9904 153.706 48.7023 154.608 48.0929C155.51 47.4836 156.18 46.5884 156.51 45.552H156.598V48.3231V48.2448ZM135.7 48.2448H139.995V25.7234H135.445V41.4884C135.479 41.9863 135.407 42.4858 135.233 42.9539C135.06 43.4219 134.789 43.8481 134.439 44.2042C134.089 44.5603 133.667 44.8384 133.202 45.0201C132.736 45.2017 132.237 45.2829 131.738 45.2583C129.777 45.2583 128.668 44.426 128.668 41.9094V25.7136H124.118V41.4884C124.118 47.3635 126.393 48.8715 129.757 48.8715C130.928 48.9059 132.087 48.6239 133.11 48.0551C134.134 47.4863 134.985 46.6519 135.573 45.6402H135.7V48.284V48.2448ZM108.064 29.0722H111.183V43.0845C111.183 47.6965 112.693 48.5288 115.772 48.5288C117.006 48.5556 118.238 48.4306 119.44 48.1567V44.798C118.897 44.8947 118.345 44.9373 117.793 44.9253C116.233 44.9253 115.733 44.2987 115.733 42.5361V29.0722H119.44V25.7136H115.704V19.2999H111.173V25.7136H108.064V29.0722ZM85.9399 39.011V39.7258C85.9399 43.9168 87.6267 48.8715 95.0799 48.8715C101.15 48.8715 105.024 46.2277 105.024 39.8531C105.024 35.7405 103.171 33.4296 98.9144 31.9217L95.6782 30.7466C92.4713 29.5324 91.167 28.2301 91.167 25.6744C91.167 22.4823 93.1284 21.3562 95.2074 21.3562C98.1985 21.3562 99.4244 22.9523 99.4244 25.6744V26.3011H104.23V25.6353C104.23 22.5312 103.426 17.743 95.7174 17.743C90.0686 17.743 86.3616 20.7687 86.3616 26.2228C86.3616 30.5019 88.2544 32.7638 92.638 34.4382L95.9233 35.5741C98.6202 36.3672 100.229 37.7577 100.229 40.9009C100.245 41.4935 100.137 42.0831 99.9118 42.6317C99.6864 43.1802 99.3486 43.6756 98.92 44.086C98.4915 44.4964 97.9816 44.8127 97.4233 45.0146C96.865 45.2165 96.2705 45.2995 95.6782 45.2583C92.3438 45.2583 90.7747 43.4174 90.7747 39.765V39.011H85.9399Z" fill="#545252"/>
<path d="M268.544 29.9633V28.3966H271.937V27.4174C271.937 23.9021 272.839 20.7686 277.262 20.7686C278.283 20.791 279.297 20.9357 280.283 21.1995L279.979 22.8152C279.155 22.5807 278.305 22.4459 277.449 22.4137C274.958 22.4137 273.81 23.4418 273.81 27.4467V28.4259H278.576V29.9633H273.81V46.1004H271.937V29.9633H268.544Z" fill="#717171"/>
<path d="M296.984 37.2093C296.984 42.1053 295.023 46.6977 288.854 46.6977C282.686 46.6977 280.695 42.0661 280.695 37.1799C280.695 32.2938 282.656 27.7895 288.854 27.7895C295.052 27.7895 296.984 32.3917 296.984 37.1799V37.2093ZM288.884 45.0429C293.061 45.0429 295.023 42.1053 295.023 37.1408C295.023 32.1763 293.061 29.3954 288.854 29.3954C284.647 29.3954 282.656 32.2546 282.656 37.1408C282.656 42.0269 284.618 45.0429 288.854 45.0429H288.884Z" fill="#717171"/>
<path d="M309.38 28.0343L309.282 29.7772C308.046 29.7176 306.82 30.0181 305.753 30.6423C304.685 31.2665 303.823 32.1873 303.27 33.2925V46.1004H301.377V33.224C301.424 31.6047 301.266 29.986 300.907 28.4063L302.623 28.1224C302.979 29.1779 303.177 30.2798 303.211 31.3929C303.848 30.3366 304.755 29.4687 305.84 28.8784C306.924 28.2881 308.146 27.9967 309.38 28.0343Z" fill="#717171"/>
<path d="M334.544 24.9498C332.893 24.0665 331.062 23.5708 329.19 23.5006C326.915 23.5006 324.11 24.4798 324.11 27.858C324.11 30.3745 326.169 31.3341 329.131 32.705C332.867 34.448 335.515 36.0343 335.515 39.8629C335.515 44.5532 332.397 46.5116 328.601 46.5116C326.037 46.4745 323.505 45.9355 321.148 44.9253L321.649 43.1824C323.811 44.149 326.144 44.6782 328.513 44.7393C331.004 44.7393 333.534 43.6524 333.534 39.951C333.534 37.3072 331.445 35.907 328.052 34.35C324.659 32.7931 322.168 31.5202 322.168 27.9168C322.168 23.5593 325.561 21.7576 329.033 21.7576C331.167 21.7803 333.268 22.2929 335.172 23.2558L334.544 24.9498Z" fill="#717171"/>
<path d="M338.879 37.4247C338.879 31.9804 341.085 27.7209 347.224 27.7209C348.628 27.7387 350.022 27.9597 351.363 28.377L350.99 30.0514C349.781 29.6228 348.508 29.401 347.224 29.3954C342.321 29.3954 340.811 33.1359 340.811 37.4541C340.811 41.4394 342.4 44.9156 347.352 44.9156C348.666 44.94 349.972 44.7209 351.206 44.2693L351.52 45.9731C350.143 46.4206 348.702 46.6421 347.254 46.6292C340.87 46.6292 338.879 42.213 338.879 37.4541V37.4247Z" fill="#717171"/>
<path d="M363.916 27.9951C367.78 27.9951 369.496 30.306 369.496 34.5263V46.1004H367.593V34.9376C367.593 32.2938 366.936 29.6206 363.455 29.6206C362.312 29.6554 361.189 29.9246 360.154 30.4114C359.12 30.8983 358.197 31.5923 357.443 32.4504V46.1004H355.482V21.1604L357.443 20.847V30.8642C359.141 29.098 361.465 28.0677 363.916 27.9951Z" fill="#717171"/>
<path d="M389.894 37.2093C389.894 42.1053 387.933 46.6977 381.764 46.6977C375.596 46.6977 373.625 42.0269 373.625 37.1408C373.625 32.2546 375.586 27.7503 381.784 27.7503C387.982 27.7503 389.914 32.3525 389.914 37.1408L389.894 37.2093ZM381.794 45.0428C385.971 45.0428 387.933 42.1053 387.933 37.1408C387.933 32.1763 385.971 29.3953 381.764 29.3953C377.557 29.3953 375.586 32.2252 375.586 37.1114C375.586 41.9975 377.547 45.0428 381.764 45.0428H381.794Z" fill="#717171"/>
<path d="M409.302 37.2093C409.302 42.1053 407.341 46.6977 401.172 46.6977C395.004 46.6977 393.013 42.0661 393.013 37.1799C393.013 32.2938 394.974 27.7895 401.172 27.7895C407.37 27.7895 409.302 32.3917 409.302 37.1799V37.2093ZM401.201 45.0429C405.379 45.0429 407.341 42.1053 407.341 37.1408C407.341 32.1763 405.379 29.3954 401.172 29.3954C396.965 29.3954 394.974 32.2546 394.974 37.1408C394.974 42.0269 396.935 45.0429 401.172 45.0429H401.201Z" fill="#717171"/>
<path d="M415.499 46.1004H413.539V21.1604L415.499 20.847V46.1004Z" fill="#717171"/>
</g>
<defs>
<linearGradient id="paint0_linear" x1="25.2041" y1="49.6233" x2="79.1428" y2="49.6233" gradientUnits="userSpaceOnUse">
<stop stop-color="#A7A2A1" stop-opacity="0"/>
<stop offset="1" stop-color="#A7A2A1"/>
</linearGradient>
<linearGradient id="paint1_linear" x1="67.451" y1="47.9129" x2="73.2986" y2="42.0281" gradientUnits="userSpaceOnUse">
<stop stop-color="#323333"/>
<stop offset="1" stop-color="#5F5F5F"/>
</linearGradient>
<clipPath id="clip0">
<rect width="391" height="56" fill="white" transform="translate(24.5)"/>
</clipPath>
</defs>
</svg>
