<svg id="レイヤー_1" data-name="レイヤー 1" xmlns="http://www.w3.org/2000/svg" viewBox="0 0 30 25"><g id="レイヤー_2" data-name="レイヤー 2"><g id="Logo_FIXED" data-name="Logo FIXED"><path d="M9.43,24.69C20.76,24.69,27,15.31,27,7.18c0-.27,0-.54,0-.8A12.59,12.59,0,0,0,30,3.19a12,12,0,0,1-3.54,1A6.18,6.18,0,0,0,29.17.76a12.22,12.22,0,0,1-3.91,1.49A6.16,6.16,0,0,0,14.77,7.87,17.48,17.48,0,0,1,2.09,1.44,6.15,6.15,0,0,0,4,9.65,6.08,6.08,0,0,1,1.2,8.88V9a6.16,6.16,0,0,0,4.94,6,6.08,6.08,0,0,1-2.78.11,6.16,6.16,0,0,0,5.75,4.27A12.26,12.26,0,0,1,1.47,22,12.08,12.08,0,0,1,0,21.92a17.33,17.33,0,0,0,9.43,2.76"/></g></g></svg>