<svg width="920" height="348" viewBox="0 0 920 348" fill="none" xmlns="http://www.w3.org/2000/svg">
<path d="M2 0.640015H23.8381V86.0916H76.0274V104.829H2V0.640015Z" fill="#0075F2"/>
<path d="M137.851 29.3408C143.296 31.7951 147.931 35.7468 151.216 40.7351C154.46 45.5068 156.568 50.9581 157.378 56.6709C158.001 61.7408 158.229 66.8514 158.058 71.9566H101.718C102.038 79.6861 104.735 85.1048 109.811 88.2126C113.172 90.2247 117.039 91.2314 120.955 91.1137C125.563 91.1137 129.305 89.9366 132.179 87.5824C133.908 86.1127 135.324 84.3094 136.34 82.2804H156.988C156.448 86.8488 153.95 91.4905 149.495 96.2056C142.533 103.702 132.832 107.446 120.395 107.44C110.485 107.571 100.844 104.218 93.1545 97.9662C85.2916 91.6439 81.3601 81.3601 81.3601 67.1148C81.3601 53.7765 84.9114 43.5428 92.014 36.4135C99.1167 29.2842 108.333 25.7228 119.664 25.7295C125.914 25.6304 132.113 26.8614 137.851 29.3408ZM107.6 46.7473C104.745 49.6817 102.951 53.6565 102.218 58.6717H137.051C136.677 53.3364 134.883 49.2782 131.669 46.4972C128.316 43.6813 124.041 42.2029 119.664 42.3457C114.482 42.3457 110.461 43.8129 107.6 46.7473Z" fill="#0075F2"/>
<path d="M198.804 57.9614C201.56 57.7242 204.274 57.129 206.877 56.1908C209.791 54.9703 211.245 53.063 211.238 50.4687C211.238 47.3142 210.121 45.1367 207.887 43.9363C205.666 42.7258 202.385 42.1256 198.073 42.1256C193.232 42.1256 189.804 43.306 187.79 45.6669C186.215 47.7203 185.223 50.1601 184.919 52.7295H165.401C165.835 45.9937 167.736 40.4583 171.103 36.1234C176.439 29.3342 185.655 25.9396 198.754 25.9396C206.596 25.788 214.362 27.5024 221.412 30.9415C228.014 34.276 231.316 40.5917 231.316 49.8885V85.2515C231.316 87.7024 231.366 90.6635 231.456 94.1548C231.596 96.8225 231.999 98.6131 232.666 99.5268C233.44 100.559 234.476 101.364 235.667 101.858V104.859H213.659C213.084 103.446 212.654 101.978 212.379 100.477C212.149 99.1066 211.959 97.5561 211.818 95.8054C208.982 98.8452 205.708 101.445 202.105 103.518C197.573 106.052 192.451 107.343 187.259 107.26C180.223 107.26 174.408 105.259 169.813 101.257C165.218 97.256 162.92 91.6139 162.92 84.3312C162.92 74.861 166.612 68.0051 173.994 63.7636C178.043 61.4494 184.002 59.7821 191.871 58.7617L198.804 57.9614ZM211.168 67.3649C209.927 68.1369 208.614 68.7869 207.247 69.3056C205.479 69.922 203.662 70.3839 201.815 70.6861L197.213 71.5365C192.905 72.2901 189.807 73.2071 187.92 74.2875C186.397 75.1171 185.14 76.3604 184.294 77.8739C183.448 79.3873 183.047 81.1091 183.138 82.8406C183.138 86.2819 184.112 88.7695 186.059 90.3034C188.089 91.8606 190.594 92.6698 193.152 92.5942C197.518 92.6116 201.784 91.2805 205.366 88.7828C209.087 86.2419 211.022 81.6002 211.168 74.8577V67.3649Z" fill="#0075F2"/>
<path d="M289.577 26.0096C289.837 26.0096 290.417 26.0696 291.317 26.1096V46.7273C290.037 46.5772 288.897 46.4872 287.906 46.4371C286.916 46.3871 286.106 46.3671 285.495 46.3671C277.366 46.3671 271.904 49.0081 269.109 54.2901C267.549 57.2512 266.768 61.8195 266.768 67.9951V104.829H246.401V27.8003H265.698V41.2152C268.819 36.0733 271.54 32.562 273.861 30.6813C277.642 27.5202 282.561 25.9396 288.616 25.9396C288.938 25.9452 289.258 25.9686 289.577 26.0096Z" fill="#0075F2"/>
<path d="M361.874 32.2019C366.936 36.3768 369.47 43.2893 369.476 52.9396V104.829H348.759V57.9614C348.759 53.9132 348.219 50.8021 347.138 48.628C345.137 44.6732 341.379 42.6958 335.864 42.6958C329.062 42.6958 324.393 45.5935 321.859 51.389C320.415 55.1276 319.735 59.1175 319.858 63.1233V104.829H299.661V27.9203H319.238V39.1645C321.196 35.9241 323.681 33.0333 326.591 30.6113C330.732 27.4968 335.984 25.9396 342.346 25.9396C350.303 25.9396 356.812 28.027 361.874 32.2019Z" fill="#0075F2"/>
<path d="M405.66 18.5869H385.143V0H405.64L405.66 18.5869ZM385.143 27.7803H405.64V104.809H385.143V27.7803Z" fill="#0075F2"/>
<path d="M483.929 32.2019C488.991 36.3768 491.522 43.2893 491.522 52.9396V104.829H470.804V57.9614C470.804 53.9132 470.267 50.8021 469.194 48.628C467.193 44.6732 463.435 42.6958 457.919 42.6958C451.104 42.6958 446.435 45.5935 443.914 51.389C442.466 55.1264 441.786 59.1172 441.914 63.1233V104.829H421.706V27.9203H441.293V39.1645C443.251 35.9272 445.733 33.037 448.636 30.6113C452.784 27.4968 458.036 25.9396 464.392 25.9396C472.355 25.9396 478.867 28.027 483.929 32.2019Z" fill="#0075F2"/>
<path d="M545.952 27.7103C550.867 29.711 554.835 33.4324 557.856 38.8744V27.7803H577.584V100.867C577.584 110.811 575.916 118.304 572.582 123.346C566.82 132.015 555.752 136.35 539.38 136.35C529.496 136.35 521.433 134.42 515.191 130.558C508.948 126.697 505.48 120.925 504.787 113.242H526.795C527.14 115.193 528.109 116.98 529.556 118.334C531.737 120.161 535.405 121.078 540.56 121.085C547.843 121.085 552.714 118.657 555.175 113.802C556.776 110.688 557.58 105.459 557.586 98.1163V93.1144C556.018 95.978 553.896 98.5011 551.344 100.537C547.342 103.598 542.114 105.129 535.658 105.129C525.721 105.129 517.788 101.654 511.859 94.705C505.931 87.7558 502.963 78.3423 502.956 66.4646C502.956 55.0137 505.814 45.3901 511.529 37.5939C517.245 29.7977 525.344 25.8962 535.828 25.8896C539.289 25.8317 542.728 26.4502 545.952 27.7103ZM552.845 82.9507C556.099 79.3894 557.723 73.7206 557.716 65.9444C557.716 58.6083 556.172 53.0463 553.085 49.2582C551.613 47.3978 549.725 45.9102 547.571 44.916C545.418 43.9218 543.06 43.4491 540.69 43.5361C533.627 43.5361 528.752 46.8707 526.065 53.5398C524.541 57.7258 523.822 62.1617 523.944 66.6146C523.868 70.6985 524.634 74.7542 526.195 78.529C528.929 85.0314 533.827 88.2826 540.89 88.2826C543.151 88.3166 545.391 87.8571 547.456 86.9362C549.521 86.0153 551.359 84.6552 552.845 82.9507Z" fill="#0075F2"/>
<path d="M657.613 18.5869H637.115V0H657.613V18.5869ZM637.115 27.7803H657.613V104.809H637.115V27.7803Z" fill="#1A1A1A"/>
<path d="M689.845 80.2297C690.275 83.811 691.196 86.3519 692.626 87.8625C695.134 90.5301 699.802 91.864 706.631 91.864C709.899 92.0088 713.157 91.4031 716.155 90.0933C717.208 89.667 718.109 88.933 718.739 87.9872C719.369 87.0414 719.699 85.9277 719.686 84.7913C719.725 83.7542 719.482 82.7259 718.981 81.8166C718.481 80.9073 717.742 80.1513 716.845 79.6294C714.944 78.4623 707.892 76.4383 695.687 73.5572C686.897 71.3897 680.705 68.6787 677.11 65.4242C673.516 62.1697 671.718 57.5513 671.718 51.5691C671.718 44.4598 674.526 38.3475 680.142 33.2323C685.757 28.1171 693.663 25.5594 703.86 25.5594C713.524 25.5594 721.403 27.4802 727.499 31.3216C733.595 35.163 737.089 41.7955 737.983 51.2189H717.725C717.581 49.0029 716.818 46.8718 715.525 45.0667C713.297 42.3657 709.502 41.0152 704.14 41.0152C699.729 41.0152 696.588 41.7054 694.707 43.0659C693.879 43.5751 693.189 44.2805 692.699 45.1198C692.209 45.9591 691.933 46.9064 691.896 47.8777C691.844 48.9149 692.102 49.9441 692.637 50.8346C693.171 51.7251 693.958 52.4369 694.897 52.8795C696.898 53.9666 703.937 55.8306 716.015 58.4716C724.064 60.3523 730.1 63.2034 734.122 67.0248C736.078 68.8867 737.622 71.1374 738.656 73.6322C739.69 76.1269 740.19 78.8105 740.124 81.5101C740.218 85.0734 739.495 88.6109 738.01 91.8516C736.526 95.0924 734.32 97.9505 731.561 100.207C725.845 105.042 717.019 107.456 705.081 107.45C692.896 107.45 683.893 104.895 678.071 99.7869C675.256 97.3823 673.012 94.3797 671.505 90.998C669.998 87.6164 669.264 83.9409 669.358 80.2397L689.845 80.2297Z" fill="#1A1A1A"/>
<path d="M96.8458 148.105C100.39 149.608 103.49 151.994 105.849 155.037C108.112 157.92 109.624 161.32 110.251 164.931C110.804 168.699 111.042 172.507 110.961 176.315L110.811 224.873H90.1033V175.855C90.1931 173.374 89.7105 170.906 88.6928 168.642C86.8921 165.061 83.5809 163.27 78.7591 163.27C73.1771 163.27 69.3223 165.581 67.1948 170.203C66.0354 173 65.4765 176.009 65.5542 179.036V224.913H45.1967V178.996C45.1967 174.428 44.7232 171.093 43.7762 168.992C42.0756 165.271 38.741 163.407 33.7725 163.4C27.997 163.4 24.1189 165.264 22.1382 168.992C21.0478 171.113 20.5076 174.264 20.5076 178.466V224.833H0V147.965H19.6573V159.209C22.1582 155.207 24.5224 152.356 26.7499 150.656C30.6713 147.635 35.7566 146.124 42.0055 146.124C47.9144 146.124 52.6895 147.421 56.3308 150.015C59.3214 152.476 61.6266 155.667 63.0233 159.279C65.3144 155.09 68.7308 151.625 72.8869 149.275C77.2011 147.119 81.9694 146.028 86.7921 146.094C90.241 146.116 93.6537 146.799 96.8458 148.105Z" fill="#1A1A1A"/>
<path d="M191.291 215.45C184.761 223.453 174.851 227.454 161.56 227.454C148.268 227.454 138.358 223.453 131.829 215.45C125.306 207.447 122.045 197.776 122.045 186.439C122.045 175.335 125.306 165.708 131.829 157.558C138.351 149.409 148.261 145.34 161.56 145.354C174.858 145.354 184.768 149.425 191.291 157.568C197.813 165.711 201.074 175.338 201.074 186.449C201.074 197.753 197.813 207.42 191.291 215.45ZM175.115 204.316C178.282 200.127 179.866 194.172 179.866 186.449C179.866 178.726 178.282 172.787 175.115 168.632C171.94 164.471 167.398 162.39 161.489 162.39C155.581 162.39 151.029 164.471 147.834 168.632C144.647 172.794 143.053 178.733 143.053 186.449C143.053 194.165 144.65 200.121 147.844 204.316C151.032 208.497 155.584 210.591 161.5 210.598C167.415 210.605 171.953 208.51 175.115 204.316Z" fill="#1A1A1A"/>
<path d="M255.794 146.054C256.054 146.054 256.635 146.114 257.535 146.154V166.802C256.265 166.652 255.124 166.562 254.134 166.512C253.143 166.462 252.333 166.442 251.723 166.442C243.58 166.442 238.115 169.082 235.327 174.364C233.766 177.326 232.986 181.894 232.986 188.07V224.903H212.628V147.875H231.926V161.26C235.047 156.118 237.764 152.606 240.079 150.726C243.873 147.565 248.795 145.984 254.844 145.984C255.162 145.99 255.479 146.013 255.794 146.054Z" fill="#1A1A1A"/>
<path d="M317.908 149.385C323.353 151.84 327.988 155.791 331.273 160.779C334.512 165.553 336.62 171.004 337.435 176.715C338.05 181.786 338.271 186.896 338.095 192.001H281.774C282.081 199.731 284.775 205.149 289.857 208.257C293.222 210.269 297.093 211.275 301.011 211.158C305.613 211.158 309.354 209.981 312.236 207.627C313.965 206.157 315.38 204.354 316.397 202.325H337.045C336.498 206.893 333.997 211.535 329.542 216.25C322.593 223.746 312.896 227.491 300.451 227.484C290.541 227.617 280.9 224.264 273.211 218.011C265.335 211.688 261.4 201.404 261.407 187.159C261.407 173.821 264.958 163.587 272.061 156.458C279.163 149.329 288.383 145.767 299.721 145.774C305.971 145.675 312.17 146.906 317.908 149.385ZM287.656 166.792C284.795 169.726 283.001 173.701 282.274 178.716H317.117C316.744 173.381 314.947 169.323 311.725 166.542C308.374 163.722 304.098 162.244 299.721 162.39C294.539 162.39 290.518 163.857 287.656 166.792Z" fill="#1A1A1A"/>
<path d="M390.324 120.825H464.892V139.131H412.042V163.06H458.369V181.157H412.042V224.843H390.324V120.825Z" fill="#1A1A1A"/>
<path d="M491.012 147.825V194.262C491.012 198.643 491.522 201.945 492.562 204.165C494.396 208.074 497.998 210.028 503.366 210.028C510.229 210.028 514.934 207.247 517.481 201.685C518.815 198.67 519.482 194.689 519.482 189.74V147.825H539.98V224.853H520.312V213.989C520.122 214.219 519.652 214.929 518.892 216.11C518.153 217.27 517.25 218.318 516.211 219.221C513.558 221.724 510.446 223.691 507.048 225.013C503.705 226.111 500.201 226.635 496.684 226.564C485.266 226.564 477.577 222.466 473.615 214.269C471.394 209.748 470.287 203.078 470.294 194.262V147.825H491.012Z" fill="#1A1A1A"/>
<path d="M618.229 152.246C623.304 156.421 625.838 163.334 625.831 172.984V224.873H605.154V178.006C605.154 173.951 604.614 170.84 603.533 168.672C601.533 164.718 597.774 162.74 592.259 162.74C585.457 162.74 580.788 165.638 578.254 171.433C576.81 175.172 576.13 179.162 576.253 183.168V224.873H556.056V147.965H575.633V159.209C577.591 155.968 580.076 153.078 582.986 150.656C587.127 147.548 592.379 145.991 598.741 145.984C606.698 145.984 613.193 148.071 618.229 152.246Z" fill="#1A1A1A"/>
<path d="M715.674 178.006C718.431 177.769 721.145 177.173 723.747 176.235C726.662 175.015 728.116 173.107 728.109 170.513C728.109 167.365 726.995 165.188 724.768 163.981C722.54 162.774 719.266 162.17 714.944 162.17C710.102 162.17 706.674 163.35 704.66 165.711C703.09 167.767 702.099 170.206 701.789 172.774H682.252C682.685 166.038 684.586 160.503 687.954 156.168C693.329 149.372 702.546 145.977 715.604 145.984C723.456 145.853 731.226 147.591 738.273 151.056C744.875 154.39 748.176 160.706 748.176 170.003V205.346C748.176 207.797 748.226 210.758 748.316 214.249C748.47 216.917 748.873 218.708 749.527 219.621C750.3 220.653 751.337 221.458 752.528 221.952V224.953H730.52C729.947 223.54 729.521 222.072 729.249 220.572C729.009 219.201 728.819 217.65 728.679 215.9C725.846 218.939 722.576 221.539 718.976 223.613C714.442 226.144 709.321 227.435 704.13 227.354C697.087 227.354 691.269 225.353 686.674 221.352C682.079 217.35 679.784 211.708 679.791 204.426C679.791 194.955 683.486 188.1 690.875 183.858C694.923 181.544 700.879 179.877 708.742 178.856L715.674 178.006ZM728.039 187.409C726.799 188.183 725.485 188.833 724.117 189.35C722.35 189.966 720.533 190.428 718.685 190.731L714.084 191.581C709.769 192.334 706.671 193.251 704.79 194.332C703.269 195.163 702.014 196.407 701.168 197.92C700.322 199.433 699.92 201.154 700.009 202.885C700.009 206.326 701.009 208.817 702.93 210.348C704.96 211.904 707.465 212.713 710.022 212.639C714.399 212.662 718.676 211.331 722.267 208.827C725.988 206.286 727.922 201.645 728.069 194.902L728.039 187.409Z" fill="#1A1A1A"/>
<path d="M825.685 152.246C830.76 156.421 833.295 163.334 833.288 172.984V224.873H812.57V178.006C812.57 173.951 812.03 170.84 810.95 168.672C808.949 164.718 805.191 162.74 799.676 162.74C792.873 162.74 788.205 165.638 785.67 171.433C784.227 175.172 783.546 179.162 783.67 183.168V224.873H763.472V147.965H783.049V159.209C785.007 155.968 787.492 153.078 790.402 150.656C794.544 147.548 799.796 145.991 806.158 145.984C814.108 145.984 820.617 148.071 825.685 152.246Z" fill="#1A1A1A"/>
<path d="M890.629 149.055C894.261 151.09 897.312 154.021 899.492 157.568V120.825H920V224.863H900.333V214.199C897.935 218.308 894.543 221.748 890.469 224.203C886.788 226.27 882.203 227.307 876.714 227.314C867.671 227.314 860.064 223.673 853.896 216.39C847.727 209.107 844.642 199.771 844.642 188.38C844.642 175.235 847.68 164.898 853.755 157.368C859.831 149.839 867.954 146.067 878.124 146.054C882.483 145.947 886.794 146.982 890.629 149.055ZM895.631 203.935C898.612 199.694 900.103 194.205 900.103 187.469C900.103 178.046 897.715 171.307 892.94 167.252C890.088 164.833 886.456 163.529 882.716 163.58C876.807 163.58 872.472 165.805 869.711 170.253C866.95 174.701 865.566 180.227 865.56 186.829C865.56 193.952 866.967 199.644 869.781 203.905C872.596 208.167 876.864 210.298 882.586 210.298C888.275 210.304 892.61 208.187 895.591 203.945L895.631 203.935Z" fill="#1A1A1A"/>
<path d="M96.8458 268.149C100.39 269.652 103.49 272.039 105.849 275.082C108.112 277.965 109.624 281.364 110.251 284.975C110.804 288.744 111.042 292.552 110.961 296.36L110.811 344.918H90.1033V295.899C90.1931 293.419 89.7105 290.951 88.6928 288.687C86.8921 285.105 83.5809 283.315 78.7591 283.315C73.1771 283.315 69.3223 285.626 67.1948 290.247C66.0354 293.044 65.4765 296.054 65.5542 299.081V344.958H45.1967V299.041C45.1967 294.472 44.7232 291.138 43.7762 289.037C42.0756 285.315 38.741 283.451 33.7725 283.445C27.997 283.445 24.1189 285.309 22.1382 289.037C21.0478 291.158 20.5076 294.309 20.5076 298.51V344.878H0V268.009H19.6573V279.253C22.1582 275.252 24.5224 272.401 26.7499 270.7C30.6713 267.679 35.7566 266.168 42.0055 266.168C47.9144 266.168 52.6895 267.466 56.3308 270.06C59.3214 272.52 61.6266 275.711 63.0233 279.323C65.3144 275.134 68.7308 271.669 72.8869 269.32C77.2011 267.163 81.9694 266.072 86.7921 266.138C90.241 266.161 93.6537 266.843 96.8458 268.149Z" fill="#1A1A1A"/>
<path d="M191.291 335.494C184.761 343.497 174.851 347.498 161.56 347.498C148.268 347.498 138.358 343.497 131.829 335.494C125.306 327.491 122.045 317.821 122.045 306.483C122.045 295.366 125.306 285.736 131.829 277.593C138.351 269.45 148.261 265.385 161.56 265.398C174.858 265.398 184.768 269.47 191.291 277.613C197.813 285.756 201.074 295.386 201.074 306.503C201.074 317.801 197.813 327.464 191.291 335.494ZM175.115 324.36C178.282 320.172 179.866 314.22 179.866 306.503C179.866 298.787 178.282 292.845 175.115 288.677C171.94 284.515 167.398 282.434 161.489 282.434C155.581 282.434 151.029 284.515 147.834 288.677C144.647 292.838 143.053 298.78 143.053 306.503C143.053 314.226 144.65 320.178 147.844 324.36C151.032 328.541 155.584 330.636 161.5 330.642C167.415 330.649 171.953 328.555 175.115 324.36Z" fill="#1A1A1A"/>
<path d="M255.794 266.098C256.054 266.098 256.635 266.158 257.535 266.198V286.846C256.265 286.696 255.124 286.606 254.134 286.556C253.143 286.506 252.333 286.486 251.723 286.486C243.58 286.486 238.115 289.127 235.327 294.409C233.766 297.37 232.986 301.942 232.986 308.124V344.948H212.628V267.919H231.926V281.304C235.047 276.162 237.764 272.651 240.079 270.77C243.873 267.609 248.795 266.028 254.844 266.028C255.162 266.034 255.479 266.058 255.794 266.098Z" fill="#1A1A1A"/>
<path d="M317.908 269.43C323.353 271.884 327.988 275.836 331.273 280.824C334.512 285.598 336.62 291.048 337.435 296.76C338.05 301.83 338.271 306.941 338.095 312.045H281.774C282.081 319.782 284.775 325.2 289.857 328.301C293.222 330.313 297.093 331.32 301.011 331.202C305.613 331.202 309.354 330.025 312.236 327.671C313.965 326.201 315.38 324.398 316.397 322.369H337.045C336.498 326.944 333.997 331.586 329.542 336.294C322.593 343.79 312.896 347.535 300.451 347.528C290.541 347.665 280.898 344.312 273.211 338.055C265.335 331.733 261.4 321.449 261.407 307.204C261.407 293.865 264.958 283.632 272.061 276.502C279.163 269.373 288.383 265.812 299.721 265.818C305.971 265.719 312.17 266.95 317.908 269.43ZM287.656 286.836C284.795 289.764 283.001 293.739 282.274 298.76H317.117C316.744 293.425 314.947 289.367 311.725 286.586C308.374 283.767 304.098 282.288 299.721 282.434C294.539 282.434 290.518 283.902 287.656 286.836Z" fill="#1A1A1A"/>
<path d="M390.324 240.869H464.892V259.176H412.042V283.105H458.369V301.201H412.042V344.887H390.324V240.869Z" fill="#1A1A1A"/>
<path d="M513.66 266.098C513.92 266.098 514.5 266.158 515.401 266.198V286.846C514.12 286.696 512.98 286.606 511.989 286.556C510.999 286.506 510.189 286.486 509.578 286.486C501.449 286.486 495.987 289.127 493.192 294.409C491.632 297.37 490.851 301.942 490.851 308.124V344.948H470.484V267.919H489.781V281.304C492.902 276.162 495.623 272.651 497.944 270.77C501.725 267.609 506.644 266.028 512.7 266.028C513.021 266.034 513.341 266.057 513.66 266.098Z" fill="#1A1A1A"/>
<path d="M575.763 269.43C581.21 271.881 585.846 275.833 589.128 280.824C592.372 285.596 594.48 291.047 595.29 296.76C595.915 301.829 596.139 306.94 595.96 312.045H539.629C539.95 319.782 542.647 325.2 547.723 328.301C551.084 330.313 554.951 331.32 558.867 331.202C563.482 331.202 567.226 330.025 570.101 327.671C571.828 326.199 573.243 324.396 574.262 322.369H594.9C594.36 326.944 591.862 331.586 587.407 336.294C580.471 343.79 570.771 347.535 558.306 347.528C548.396 347.663 538.754 344.31 531.066 338.055C523.203 331.733 519.272 321.449 519.272 307.204C519.272 293.865 522.823 283.632 529.926 276.502C537.029 269.373 546.245 265.812 557.576 265.818C563.826 265.719 570.025 266.95 575.763 269.43ZM545.512 286.836C542.664 289.764 540.87 293.739 540.13 298.76H574.963C574.602 293.425 572.808 289.367 569.581 286.586C566.228 283.768 561.953 282.29 557.576 282.434C552.394 282.434 548.373 283.902 545.512 286.836Z" fill="#1A1A1A"/>
<path d="M657.703 269.43C663.145 271.885 667.777 275.836 671.058 280.824C674.313 285.593 676.431 291.044 677.25 296.76C677.875 301.829 678.099 306.94 677.92 312.045H621.56C621.88 319.782 624.577 325.2 629.653 328.301C633.014 330.312 636.881 331.318 640.797 331.202C645.405 331.202 649.15 330.025 652.031 327.671C653.758 326.199 655.173 324.396 656.192 322.369H676.83C676.29 326.944 673.792 331.586 669.337 336.294C662.415 343.79 652.715 347.535 640.237 347.528C630.326 347.665 620.683 344.312 612.997 338.055C605.147 331.733 601.222 321.449 601.222 307.204C601.222 293.865 604.774 283.631 611.876 276.502C618.979 269.373 628.195 265.812 639.526 265.818C645.772 265.723 651.968 266.954 657.703 269.43ZM627.452 286.836C624.591 289.764 622.793 293.739 622.06 298.76H656.903C656.536 293.425 654.739 289.367 651.511 286.586C648.159 283.768 643.883 282.29 639.506 282.434C634.324 282.434 630.306 283.902 627.452 286.836Z" fill="#1A1A1A"/>
<path d="M389 230C450.4 219.165 513.624 219.099 575.722 215.722C588.934 215.004 605.101 212.268 618.5 214.556C619.959 214.805 619.847 216 621.222 216C621.506 216 624.251 215.327 624.111 215.222C621.625 213.358 606.165 218.261 603.944 218.611C584.524 221.678 564.941 223.612 545.5 226.556C520.115 230.399 494.907 234.903 469.222 236.333C454.742 237.139 411.275 234 425.778 234C440.175 234 455.467 227.642 469.556 225.222C499.051 220.156 528.961 216.474 558.778 214C584.147 211.895 610.796 210.162 636.167 213.667C640.099 214.21 654.671 215.341 657 220" stroke="black" stroke-width="2" stroke-linecap="round" stroke-linejoin="round"/>
<path d="M405 336.472C424.172 333.666 443.683 333.226 463 332.027C504.509 329.452 545.377 328.502 586.944 330.638C620.576 332.366 654.186 334.031 687.833 335.416C693.628 335.655 710.898 337.086 705.111 337.472C703.35 337.589 701.511 336.895 699.778 336.694C690.475 335.615 680.59 336.472 671.278 336.472C609.698 336.472 548.59 336.963 487.111 341.027C463.282 342.603 439.34 344.309 415.444 344.472C414.926 344.475 423.788 342.983 426.389 342.083C427.736 341.616 427.756 341.472 429.333 341.472C445.55 341.472 461.347 336.686 477.333 334.583C541.659 326.121 608.006 330.338 672.611 333.361C676.327 333.534 687.427 334.079 683.722 334.416C681.466 334.621 679.968 334.259 678 333.472" stroke="black" stroke-width="2" stroke-linecap="round" stroke-linejoin="round"/>
</svg>
